<svg xmlns="http://www.w3.org/2000/svg" width="160" height="185" viewBox="0 0 160 185" version="1.1"><path d="M 56.500 10.653 C 45.195 12.243, 36.178 22.269, 41.377 27.468 C 43.747 29.838, 43.278 32, 40.395 32 C 39.731 32, 37.459 32.894, 35.345 33.987 C 33.230 35.080, 30.375 36.429, 29 36.985 C 27.625 37.541, 25.643 38.559, 24.595 39.248 C 23.548 39.936, 20.482 41.914, 17.781 43.643 C -1.365 55.898, -1.697 88.029, 17.142 105.471 C 22.931 110.830, 23.079 111.101, 24.650 119.219 C 30.500 149.455, 38.639 162.018, 58.490 171.459 C 70.921 177.372, 82.044 179.489, 88.203 177.115 C 89.466 176.628, 92.997 175.508, 96.048 174.627 C 104.680 172.134, 108.327 167.495, 103.863 164.684 C 102.662 163.927, 100.401 164.281, 95.363 166.012 C 72.142 173.994, 46.746 157.783, 41.962 131.924 C 41.308 128.391, 40.376 124.470, 39.890 123.210 C 39.404 121.951, 38.718 117.676, 38.365 113.710 C 37.723 106.500, 37.723 106.500, 31.266 100.446 C 21.087 90.902, 23.480 85.502, 34.833 92.399 C 41.081 96.194, 51.073 98.309, 52.425 96.122 C 52.806 95.505, 54.415 95, 56 95 C 57.585 95, 59.120 94.616, 59.410 94.146 C 60.187 92.888, 70.875 92.019, 75.500 92.837 C 81.408 93.882, 83.973 93.200, 85.079 90.291 C 87.194 84.728, 83.462 81.588, 73.436 80.494 C 67.839 79.883, 64.366 80.286, 50.883 83.110 C 45 84.342, 38.389 81.622, 30.089 74.553 C 28.763 73.424, 27.953 72.984, 28.290 73.575 C 28.933 74.705, 19.555 78.221, 18.557 77.223 C 16.764 75.431, 18.628 65.643, 20.617 66.406 C 21.708 66.825, 21.740 66.557, 20.783 65.025 C 19.468 62.919, 20.995 58.837, 24.159 56 C 28.188 52.386, 30.088 51, 31.011 51 C 31.555 51, 32 50.550, 32 50 C 32 49.450, 32.475 49, 33.055 49 C 33.635 49, 36.174 48.060, 38.696 46.910 C 41.219 45.761, 44.303 45.016, 45.550 45.254 C 46.961 45.524, 47.654 45.261, 47.384 44.559 C 47.146 43.938, 48.977 42.595, 51.453 41.574 C 59.006 38.459, 61.783 29.591, 56.850 24.341 C 54.313 21.640, 55.942 20.374, 60.766 21.296 C 64.974 22.100, 69.090 19.253, 68.345 16.052 C 67.245 11.319, 63.595 9.656, 56.500 10.653 M 66.075 99.908 C 60.699 104.041, 63.408 110, 70.663 110 C 77.910 110, 80.645 104.226, 75.365 100.073 C 72.120 97.520, 69.248 97.470, 66.075 99.908 M 105.233 102.763 C 105.048 110.886, 113.420 114.867, 117.523 108.606 C 120.947 103.379, 116.842 98.355, 109.905 99.286 C 107.557 99.601, 105.956 99.367, 105.725 98.675 C 105.520 98.059, 105.298 99.898, 105.233 102.763" stroke="none" fill="#0c0f0b" fill-rule="evenodd"/><path d="M 65.627 20.482 C 64.492 21.342, 62.632 21.676, 60.908 21.332 C 55.988 20.348, 54.285 21.610, 56.850 24.341 C 58.033 25.599, 59 27.122, 59 27.725 C 59 32.237, 74.151 34.523, 90.745 32.516 C 104.122 30.898, 116.584 38.068, 107.914 42.393 C 105.027 43.833, 104.643 43.796, 101.968 41.818 C 98.853 39.515, 76.772 39.490, 72.417 41.784 C 71.363 42.340, 68.588 43.584, 66.250 44.549 C 55.236 49.096, 62.265 55.790, 75.584 53.438 C 80.488 52.572, 87.650 51.853, 91.500 51.839 C 95.489 51.825, 99.773 51.197, 101.459 50.379 C 104.161 49.069, 104.783 49.137, 108.597 51.161 C 117.084 55.663, 128.199 49.797, 126.581 41.670 C 123.615 26.768, 112.010 21.245, 84.937 21.851 C 73.552 22.106, 71.163 21.901, 70.064 20.577 C 68.481 18.670, 68.032 18.660, 65.627 20.482 M 38.500 47 C 36.300 48.063, 33.938 48.947, 33.250 48.966 C 32.563 48.985, 32 49.450, 32 50 C 32 50.550, 31.555 51, 31.011 51 C 30.088 51, 28.188 52.386, 24.159 56 C 14.613 64.560, 35.976 86.232, 50.883 83.110 C 64.366 80.286, 67.839 79.883, 73.436 80.494 C 76.702 80.850, 80.569 81.760, 82.032 82.516 C 84.293 83.686, 85.575 83.680, 90.595 82.481 C 101.594 79.855, 105.147 80.946, 98.454 84.895 C 91.898 88.763, 89.083 100.983, 92.093 112.500 C 94.380 121.245, 94.379 121.088, 92.117 121.680 C 87.815 122.805, 88.110 129.331, 92.539 131.015 C 103.689 135.254, 113.912 126.645, 108.565 117.521 C 96.712 97.296, 109.466 87.197, 138.219 94.039 C 158.244 98.804, 161.423 70.446, 141.586 64.007 C 137.292 62.613, 125.206 63.049, 118.486 64.841 C 116.293 65.425, 110.900 66.631, 106.500 67.521 C 102.100 68.410, 96.772 69.642, 94.660 70.259 C 88.314 72.111, 55.968 71.368, 53.923 69.323 C 51.094 66.494, 51.604 60.772, 54.928 58.059 C 63.612 50.971, 49.686 41.597, 38.500 47 M 125 75.432 C 111.050 77.780, 107.567 79.845, 117 80.175 C 124.245 80.429, 126.795 80.679, 133.500 81.793 C 140.125 82.894, 141 82.700, 141 80.132 C 141 74.922, 136.277 73.534, 125 75.432 M 74.655 137.829 C 68.864 144.227, 79.036 150.751, 93.235 149.746 C 107.252 148.754, 107.564 139, 93.579 139 C 89.004 139, 85.147 138.436, 83.364 137.506 C 79.532 135.508, 76.659 135.614, 74.655 137.829" stroke="none" fill="#057ded" fill-rule="evenodd"/></svg>